P2
5 5
255
245 235 225 215 205
195 185 175 165 155
145 135 125 115 105
95 85 75 65 55
45 35 25 15 5
