P2
5 5
255
10 20 30 40 50
60 71 81 91 101
111 121 132 142 152
162 172 182 193 203
213 223 233 243 254
