P2
5 5
255
0 0 0 0 0
0 0 0 0 0
0 0 254 254 254
254 254 254 254 254
254 254 254 254 254
